<svg width="675" height="352" viewBox="0 0 675 352" fill="none" xmlns="http://www.w3.org/2000/svg">
<path d="M211.728 105.505L158.777 70.2912L211.728 35.083L264.679 70.2912L211.728 105.505Z" fill="#9CD8DE"/>
<path d="M264.679 140.718L211.728 105.505L264.679 70.291L317.631 105.505L264.679 140.718Z" fill="#BDE5E9"/>
<path d="M264.712 281.459L211.761 246.245L264.712 211.031L317.664 246.245L264.712 281.459Z" fill="#DEF2F4"/>
<path d="M317.663 246.245L264.712 211.031L317.663 175.818L370.615 211.031L317.663 246.245Z" fill="#BDE5E9"/>
<path d="M52.9512 140.746L0 105.532L52.9512 70.3184L105.902 105.532L52.9512 140.746Z" fill="#DEF2F4"/>
<path d="M105.902 105.532L52.9512 70.3184L105.902 35.1047L158.848 70.3184L105.902 105.532Z" fill="#9CD8DE"/>
<path d="M582.146 281.578L635.098 246.364L582.146 211.151L529.201 246.364L582.146 281.578Z" fill="#BDE5E9"/>
<path d="M688.049 281.578L741 246.364L688.049 211.151L635.098 246.364L688.049 281.578Z" fill="#9CD8DE"/>
<path d="M635.098 316.792L582.146 281.578L635.098 246.365L688.049 281.578L635.098 316.792Z" fill="#BDE5E9"/>
<path d="M688.049 352L635.098 316.792L688.049 281.578L741 316.792L688.049 352Z" fill="#DEF2F4"/>
<path d="M582.146 352L529.201 316.792L582.146 281.578L635.098 316.792L582.146 352Z" fill="#BDE5E9"/>
<path d="M476.25 352L423.298 316.792L476.25 281.578L529.201 316.792L476.25 352Z" fill="#DEF2F4"/>
<path d="M635.048 105.641L687.999 70.4272L635.048 35.2136L582.097 70.4272L635.048 105.641Z" fill="#9CD8DE"/>
<path d="M688 140.849L740.951 105.641L688 70.4272L635.048 105.641L688 140.849Z" fill="#9CD8DE"/>
<path d="M582.097 70.4272L635.048 35.2136L582.097 0L529.152 35.2136L582.097 70.4272Z" fill="#DEF2F4"/>
<path d="M688 70.4272L740.951 35.2136L688 0L635.048 35.2136L688 70.4272Z" fill="#DEF2F4"/>
<path d="M582.048 140.8L529.097 105.586L582.048 70.3728L634.999 105.586L582.048 140.8Z" fill="#BDE5E9"/>
<path d="M635.098 175.938L582.146 140.724L635.098 105.51L688.049 140.724L635.098 175.938Z" fill="#DEF2F4"/>
<path d="M582.146 211.151L529.201 175.937L582.146 140.724L635.098 175.937L582.146 211.151Z" fill="#9CD8DE"/>
<path d="M476.25 140.724L423.298 105.51L476.25 70.2966L529.201 105.51L476.25 140.724Z" fill="#9CD8DE"/>
<path d="M423.298 175.938L370.347 140.724L423.298 105.51L476.25 140.724L423.298 175.938Z" fill="#9CD8DE"/>
<path d="M529.201 105.51L476.25 70.2966L529.195 35.0884L582.146 70.302L529.201 105.51Z" fill="#DEF2F4"/>
<path d="M423.298 105.51L370.347 70.2966L423.298 35.0884L476.25 70.2966L423.298 105.51Z" fill="#DEF2F4"/>
<path d="M529.195 175.938L582.146 140.724L529.201 105.51L476.25 140.724L529.195 175.938Z" fill="#BDE5E9"/>
<path d="M476.25 211.151L529.201 175.937L476.25 140.724L423.298 175.937L476.25 211.151Z" fill="#DEF2F4"/>
</svg>
