<svg width="22" height="22" viewBox="0 0 22 22" fill="none" xmlns="http://www.w3.org/2000/svg">
<path fill-rule="evenodd" clip-rule="evenodd" d="M0.41 6.4225L10.41 11.4225C10.52 11.4725 10.63 11.5025 10.75 11.5025C10.87 11.5025 10.98 11.4725 11.09 11.4225L21.09 6.4225C21.34 6.2925 21.51 6.0325 21.51 5.7525C21.51 5.4725 21.35 5.2125 21.09 5.0825L11.09 0.0825C10.88 -0.0275 10.63 -0.0275 10.42 0.0825L0.41 5.0825C0.16 5.2125 0 5.4725 0 5.7525C0 6.0325 0.16 6.2925 0.41 6.4225ZM10.75 1.5925L19.07 5.7525L10.75 9.9125L2.43 5.7525L10.75 1.5925ZM20.4222 15.0825L10.7522 19.9125L1.09221 15.0825C0.722211 14.9025 0.272211 15.0425 0.082211 15.4225C-0.107789 15.8025 0.042211 16.2425 0.422211 16.4325L10.4222 21.4325C10.5322 21.4825 10.6422 21.5125 10.7622 21.5125C10.8822 21.5125 10.9922 21.4825 11.1022 21.4325L21.1022 16.4325C21.4722 16.2425 21.6222 15.7925 21.4422 15.4225C21.2522 15.0525 20.8122 14.9025 20.4322 15.0825H20.4222ZM10.7522 14.9125L20.4222 10.0825H20.4322C20.8122 9.9025 21.2522 10.0525 21.4422 10.4225C21.6222 10.7925 21.4722 11.2425 21.1022 11.4325L11.1022 16.4325C10.9922 16.4825 10.8822 16.5125 10.7622 16.5125C10.6422 16.5125 10.5322 16.4825 10.4222 16.4325L0.422211 11.4325C0.042211 11.2425 -0.107789 10.7925 0.082211 10.4225C0.272211 10.0525 0.722211 9.9025 1.09221 10.0825L10.7522 14.9125Z" fill="#196B73"/>
</svg>
