<svg width="24" height="24" viewBox="0 0 24 24" fill="none" xmlns="http://www.w3.org/2000/svg">
<path fill-rule="evenodd" clip-rule="evenodd" d="M15 2.25C14.5858 2.25 14.25 2.58579 14.25 3C14.25 3.41421 14.5858 3.75 15 3.75H19.1893L13.4697 9.46967C13.1768 9.76256 13.1768 10.2374 13.4697 10.5303C13.7626 10.8232 14.2374 10.8232 14.5303 10.5303L20.25 4.81066V9C20.25 9.41421 20.5858 9.75 21 9.75C21.4142 9.75 21.75 9.41421 21.75 9V3C21.75 2.58579 21.4142 2.25 21 2.25H15ZM3.75 15C3.75 14.5858 3.41421 14.25 3 14.25C2.58579 14.25 2.25 14.5858 2.25 15V21C2.25 21.4142 2.58579 21.75 3 21.75H9C9.41421 21.75 9.75 21.4142 9.75 21C9.75 20.5858 9.41421 20.25 9 20.25H4.81066L10.5303 14.5303C10.8232 14.2374 10.8232 13.7626 10.5303 13.4697C10.2374 13.1768 9.76256 13.1768 9.46967 13.4697L3.75 19.1893V15Z" fill="#196B73"/>
</svg>
