<svg width="22" height="18" viewBox="0 0 22 18" fill="none" xmlns="http://www.w3.org/2000/svg">
<path fill-rule="evenodd" clip-rule="evenodd" d="M1.80177 2.6457C1.95604 2.13018 2.43706 1.75 3 1.75H19C19.563 1.75 20.044 2.13021 20.1983 2.64578L11.0001 9.08451L1.80177 2.6457ZM1.75 4.44045V15C1.75 15.6858 2.31421 16.25 3 16.25H19C19.6858 16.25 20.25 15.6858 20.25 15V4.44054L11.4302 10.6144C11.1719 10.7952 10.8282 10.7952 10.57 10.6144L1.75 4.44045ZM21.75 3.01328V15C21.75 16.5142 20.5142 17.75 19 17.75H3C1.48579 17.75 0.25 16.5142 0.25 15V3C0.25 1.48579 1.48579 0.25 3 0.25H19C20.5085 0.25 21.7406 1.47643 21.7499 2.98279C21.7502 2.99296 21.7502 3.00312 21.75 3.01328Z" fill="#196B73"/>
</svg>
