<svg width="23" height="22" viewBox="0 0 23 22" fill="none" xmlns="http://www.w3.org/2000/svg">
<path fill-rule="evenodd" clip-rule="evenodd" d="M22.0422 0.481805C22.0383 0.47773 22.0343 0.473691 22.0303 0.469691C21.8977 0.337094 21.7278 0.264526 21.5544 0.251986C21.5094 0.248703 21.4639 0.249474 21.4186 0.254426C21.3567 0.261143 21.2955 0.275545 21.2365 0.29763L1.25224 7.29213C0.961991 7.39371 0.763163 7.66219 0.750627 7.96945C0.738092 8.27671 0.914389 8.56049 1.1954 8.68538L9.9318 12.5682L13.8146 21.3046C13.9395 21.5856 14.2233 21.7619 14.5306 21.7494C14.8378 21.7369 15.1063 21.538 15.2079 21.2478L22.2025 1.2633C22.3004 1.00148 22.247 0.6959 22.0422 0.481805ZM18.6457 2.79363L3.53331 8.08297L10.3339 11.1055L18.6457 2.79363ZM11.3946 12.1661L19.7064 3.85428L14.4171 18.9667L11.3946 12.1661Z" fill="#196B73"/>
</svg>
