<svg width="200" height="46" viewBox="0 0 200 46" fill="none" xmlns="http://www.w3.org/2000/svg">
<path d="M16.1114 26.7941L29.2672 33.372V27.0643L16.1114 20.4864V26.7941ZM31.4518 33.372L44.6094 26.7941V20.4864L31.4518 27.0643V33.372ZM58.8562 13.9873L31.8666 0.492493C31.3985 0.258367 30.8823 0.136475 30.3589 0.136475C29.8355 0.136475 29.3193 0.258367 28.8512 0.492493L1.86277 13.9848C1.30288 14.2649 0.832033 14.6953 0.50302 15.2279C0.174006 15.7605 -0.000174496 16.3742 1.31177e-07 17.0002V29.0003C-0.000174496 29.6263 0.174006 30.24 0.50302 30.7726C0.832033 31.3052 1.30288 31.7356 1.86277 32.0157L28.8524 45.5099C29.3205 45.744 29.8367 45.8659 30.3601 45.8659C30.8835 45.8659 31.3997 45.744 31.8678 45.5099L58.8562 32.0151C59.4162 31.7351 59.8871 31.3047 60.2161 30.7721C60.5451 30.2395 60.7193 29.6257 60.719 28.9997V16.9996C60.7191 16.3737 60.5449 15.7601 60.2159 15.2276C59.8869 14.6951 59.416 14.2648 58.8562 13.9848V13.9873ZM56.0777 28.2144L30.3595 41.076L4.64124 28.2144V17.7849L30.3595 4.92328L56.0777 17.7849V28.2144ZM30.3595 25.1695L43.4444 18.6255L30.3595 12.0827L17.2745 18.6255L30.3595 25.1695ZM104.074 10.055C97.8397 10.055 94.6791 12.3424 94.6791 16.8538V28.0895C94.6791 32.6009 97.8237 34.8883 104.027 34.8883C110.261 34.8883 113.422 32.6009 113.422 28.0895V26.8144C113.448 26.6511 113.436 26.4839 113.387 26.3261C113.338 26.1682 113.252 26.0239 113.138 25.9046C113.023 25.7852 112.883 25.6941 112.727 25.6385C112.571 25.5828 112.405 25.564 112.24 25.5836H109.691C109.524 25.5599 109.354 25.5754 109.194 25.6289C109.034 25.6823 108.888 25.7723 108.769 25.8917C108.649 26.0111 108.559 26.1566 108.506 26.3167C108.452 26.4769 108.437 26.6473 108.461 26.8144V27.759C108.461 29.2046 107.935 30.5424 104.12 30.5424C100.345 30.5424 99.8249 29.2046 99.8249 27.759V17.1849C99.8249 15.7387 100.345 14.4008 104.12 14.4008C107.935 14.4008 108.461 15.7387 108.461 17.1849V17.7036C108.433 17.8715 108.446 18.0435 108.498 18.2054C108.55 18.3673 108.64 18.5145 108.76 18.6347C108.881 18.755 109.028 18.8449 109.19 18.897C109.352 18.9491 109.524 18.9619 109.691 18.9344H112.24C113.046 18.9344 113.422 18.5442 113.422 17.7036V16.8538C113.422 12.3424 110.277 10.055 104.074 10.055ZM82.1664 10.055C77.9448 10.055 72.9128 11.2187 72.9128 16.7627V17.471C72.9128 18.3325 73.2987 18.7467 74.0938 18.7467H76.5485C77.375 18.7467 77.7793 18.3295 77.7793 17.471V17.0932C77.7793 15.6716 78.3055 14.3565 82.1215 14.3565C84.3276 14.3565 86.3676 14.7055 86.3676 17.2347V20.5381H79.2415C77.3543 20.4452 75.505 21.0898 74.0845 22.3356C73.5213 22.8879 73.0767 23.5494 72.7781 24.2795C72.4794 25.0097 72.3331 25.7931 72.3479 26.5818V28.8477C72.3479 31.8557 74.5085 34.8914 79.3356 34.8914C81.9204 34.889 84.4352 34.0518 86.5055 32.5043L86.5578 33.2612C86.6021 33.8803 86.7824 34.5135 87.7886 34.5135H90.2433C91.0384 34.5135 91.4249 34.0963 91.4249 33.2378V16.7596C91.423 12.3079 88.3098 10.055 82.1695 10.055H82.1664ZM86.3658 28.2569C84.7038 29.6395 82.6276 30.4275 80.4667 30.4957C78.2882 30.4957 77.3996 29.8255 77.3996 28.1837V27.2397C77.3996 25.7104 77.8728 24.6913 80.1836 24.6913H86.3658V28.2569ZM168.889 10.055C160.812 10.055 159.116 13.7522 159.116 16.8538V28.0895C159.116 31.191 160.812 34.8883 168.889 34.8883C176.967 34.8883 178.662 31.191 178.662 28.0895V16.8538C178.662 13.7522 176.967 10.055 168.889 10.055V10.055ZM173.514 27.7117C173.514 28.927 173.035 30.5424 168.889 30.5424C164.743 30.5424 164.264 28.927 164.264 27.7117V17.231C164.264 16.0156 164.744 14.4002 168.889 14.4002C173.034 14.4002 173.514 16.0156 173.514 17.231V27.7117ZM195.528 21.3116L188.444 18.8525C187.916 18.6765 186.687 18.1436 186.687 16.9959V16.1959C186.687 15.6587 186.687 14.0255 190.749 14.0255C193.543 14.0255 194.902 14.7356 194.902 16.1959V17.3289C194.902 18.1129 195.283 18.5098 196.036 18.5098H198.49C199.307 18.5098 199.672 18.1455 199.672 17.3289V16.1935C199.672 14.7535 199.032 10.055 190.796 10.055C187.775 10.055 185.464 10.6876 183.925 11.935C183.286 12.4428 182.772 13.0912 182.424 13.8298C182.077 14.5684 181.904 15.3773 181.92 16.1935V17.9399C181.92 20.375 183.884 22.3393 185.825 23.0212L192.907 25.4772C194.523 26.0156 195.184 26.5812 195.184 27.4286V28.703C195.184 30.591 192.375 30.8735 190.701 30.8735C188.656 30.8735 186.217 30.4969 186.217 28.703V27.7117C186.217 26.9166 185.848 26.5301 185.084 26.5301H182.579C182.422 26.5155 182.264 26.5364 182.117 26.5913C181.969 26.6462 181.836 26.7337 181.727 26.8473C181.618 26.9608 181.536 27.0976 181.487 27.2472C181.438 27.3969 181.424 27.5556 181.445 27.7117V28.892C181.446 29.7158 181.645 30.5274 182.026 31.2579C182.407 31.9885 182.958 32.6165 183.633 33.0889C185.257 34.2827 187.633 34.8883 190.698 34.8883C197.556 34.8883 199.999 31.791 199.999 28.892V26.2458C200 24.0273 198.456 22.319 195.528 21.3086V21.3116ZM125.837 34.8883C133.914 34.8883 135.61 31.191 135.61 28.0895V16.8538C135.61 13.7522 133.914 10.055 125.837 10.055C117.759 10.055 116.064 13.7522 116.064 16.8538V28.0895C116.064 31.191 117.759 34.8883 125.837 34.8883ZM121.211 17.231C121.211 16.0156 121.691 14.4002 125.837 14.4002C129.983 14.4002 130.461 16.0156 130.461 17.231V27.711C130.461 28.9264 129.982 30.5418 125.837 30.5418C121.691 30.5418 121.211 28.9264 121.211 27.711V17.231ZM157.482 10.8556C157.359 10.7106 157.204 10.5966 157.028 10.5231C156.853 10.4495 156.663 10.4184 156.474 10.4322H153.877C152.962 10.4322 152.727 11.1368 152.573 11.6014L147.855 25.1892C147.664 25.7308 147.509 26.2839 147.388 26.8452C147.281 26.2739 147.142 25.7092 146.97 25.1541L142.485 11.6051C142.292 11.0261 141.98 10.4359 141.131 10.4359H138.251C138.062 10.4219 137.872 10.453 137.697 10.5266C137.521 10.6001 137.366 10.7142 137.243 10.8593C137.148 10.9978 137.088 11.1577 137.069 11.3248C137.05 11.4919 137.073 11.6611 137.135 11.8175L144.402 33.4298C144.597 34.0643 144.802 34.5135 145.663 34.5135H148.826C149.642 34.5135 149.851 34.044 150.036 33.4415L157.594 11.8058C157.655 11.6503 157.676 11.4825 157.656 11.317C157.637 11.1514 157.577 10.9932 157.482 10.8562V10.8556Z" fill="#5ABEC8"/>
</svg>
